<svg width="242" height="218" viewBox="0 0 242 218" fill="none" xmlns="http://www.w3.org/2000/svg">
<g clip-path="url(#clip0_57_64)">
<path d="M208.173 58.7641L68.8068 27.0742L49.3859 169.359L103.04 198.819L164.158 195.457L208.173 58.7641Z" fill="#E65100"/>
<path d="M135.691 55.2268L105.932 186.1L154.826 183.411L191.847 67.9959L135.691 55.2268Z" fill="#FF6D00"/>
<path d="M119.832 124.971L123.564 108.561L158.815 116.577L145.218 163.104L110.41 166.408L114.328 149.177L132.44 147.255L137.868 129.072L119.832 124.971ZM163.776 100.446L168.738 84.3149L131.027 75.74L127.295 92.1505L163.776 100.446Z" fill="white"/>
<path d="M114.328 149.177L110.41 166.408L80.4535 148.378L83.9447 125.441L100.341 129.169L98.8284 139.612L114.328 149.177ZM107.21 87.5834L127.295 92.1505L131.027 75.74L93.7258 67.2583L85.4006 117.142L119.832 124.971L123.564 108.561L104.708 104.273L107.21 87.5834Z" fill="#EEEEEE"/>
</g>
<defs>
<clipPath id="clip0_57_64">
<rect width="201.774" height="201.953" fill="white" transform="translate(44.7781 0.0366211) rotate(12.8104)"/>
</clipPath>
</defs>
</svg>
