<svg width="100" height="100" viewBox="0 0 100 100" fill="none" xmlns="http://www.w3.org/2000/svg">
<path d="M85.4166 10.4165L14.5833 10.4165L20.8333 81.2498L49.9999 89.5832L79.1666 81.2498L85.4166 10.4165Z" fill="#0277BD"/>
<path d="M49.9999 16.6665L49.9999 83.1248L73.3333 76.4582L78.5416 16.6665L49.9999 16.6665Z" fill="#039BE5"/>
<path d="M68.9583 27.083L49.9999 27.083L49.9999 35.4163L60.2083 35.4163L59.5833 43.7497L49.9999 43.7497L49.9999 52.083L59.1666 52.083L58.5416 61.458L49.9999 64.3747L49.9999 73.1247L66.4583 67.708L67.9166 43.7497L68.9583 27.083Z" fill="white"/>
<path d="M49.9999 27.083L49.9999 35.4163L31.4583 35.4163L30.8333 27.083L49.9999 27.083ZM40.4166 43.7497L40.8333 52.083L49.9999 52.083L49.9999 43.7497L40.4166 43.7497ZM41.2499 56.2497L32.9166 56.2497L33.5416 67.708L49.9999 73.1247L49.9999 64.3747L41.4583 61.458L41.2499 56.2497Z" fill="#EEEEEE"/>
</svg>
