<svg width="100" height="100" viewBox="0 0 100 100" fill="none" xmlns="http://www.w3.org/2000/svg">
<path d="M12.4999 87.4998L12.4999 12.4998L87.4999 12.4998L87.4999 87.4998L12.4999 87.4998Z" fill="#FFD600"/>
<path d="M61.5374 68.6393C62.9791 70.9809 64.5457 73.2247 67.8645 73.2247C70.652 73.2247 72.1145 71.8393 72.1145 69.9226C72.1145 67.6288 70.602 66.8143 67.5353 65.4788L65.8541 64.7622C61.002 62.7038 57.7749 60.1247 57.7749 54.6768C57.7749 49.6559 61.6187 45.8351 67.6249 45.8351C71.902 45.8351 74.9749 47.3163 77.1916 51.1955L71.9541 54.5434C70.802 52.4851 69.5562 51.6747 67.6249 51.6747C65.6541 51.6747 64.4062 52.9184 64.4062 54.5434C64.4062 56.5518 65.6562 57.3643 68.5416 58.608L70.2228 59.3247C75.9416 61.7601 79.1666 64.2476 79.1666 69.8393C79.1666 75.8643 74.4082 79.1663 68.0207 79.1663C61.7728 79.1663 58.2249 76.0309 56.2499 72.1497L61.5374 68.6393ZM37.3999 68.8101C38.4541 70.6976 40.0562 72.1497 42.3603 72.1497C44.5645 72.1497 45.8332 71.2788 45.8332 67.8934L45.8332 45.833L52.777 45.833L52.777 68.9601C52.777 75.9747 48.7082 79.1663 42.7666 79.1663C37.3978 79.1663 33.5228 75.5288 31.9437 72.1497L37.3999 68.8101Z" fill="#000001"/>
</svg>
