<svg width="100" height="100" viewBox="0 0 100 100" fill="none" xmlns="http://www.w3.org/2000/svg">
<g clip-path="url(#clip0_68_19)">
<path d="M25.1493 75.9321C24.8562 75.9317 24.5696 76.0169 24.325 76.1771C24.0758 76.3407 23.8477 76.6228 23.8477 76.9841C23.8477 77.0321 23.8196 77.1391 23.9133 77.3252L23.8891 77.2662L28.8969 93.3879C28.9868 93.6903 29.2016 93.9213 29.4438 94.0546C29.686 94.1879 29.95 94.2368 30.2078 94.2368C30.7547 94.2368 31.3563 93.9779 31.5399 93.3934L31.5399 93.3918L36.543 77.2096L36.543 77.1507C36.543 77.2329 36.5672 77.1856 36.5672 77.0089C36.5672 76.6407 36.3305 76.3701 36.0774 76.2003C35.8242 76.0276 35.5245 75.9341 35.2172 75.9321C34.8344 75.9321 34.3953 76.1624 34.2485 76.6011L34.2453 76.6058L30.2063 89.981L26.1516 76.6298C26.0914 76.391 25.9297 76.1918 25.7414 76.0802C25.5532 75.9686 25.3477 75.9321 25.1493 75.9321ZM65.036 76.7631C64.2391 76.7631 63.5672 77.3693 63.5672 78.1275C63.5672 78.8856 64.2282 79.5127 65.036 79.5127C65.8282 79.5127 66.4578 78.874 66.4578 78.1275C66.4578 77.381 65.8172 76.7631 65.036 76.7631ZM53.2946 81.9244C50.5696 81.9244 48.325 84.0887 48.325 86.6895L48.325 89.3546C48.325 90.8112 48.9094 92.06 49.9032 92.9213C50.8953 93.7833 52.2813 94.26 53.8696 94.26C55.043 94.26 56 93.9988 56.6836 93.6453C57.0258 93.4678 57.3008 93.2693 57.5032 93.0531C57.7063 92.836 57.8547 92.5996 57.8547 92.3034C57.8547 92.0321 57.75 91.7965 57.5789 91.5848C57.4086 91.3732 57.1399 91.1786 56.793 91.1786C56.543 91.1786 56.3508 91.2833 56.1844 91.3848C56.018 91.4856 55.8618 91.598 55.6735 91.7058C55.2969 91.9205 54.7985 92.1298 53.9172 92.1298C52.936 92.1298 52.1188 91.8523 51.5547 91.3856C50.9922 90.9205 50.6641 90.2732 50.6641 89.4252L50.6641 88.9321L55.6914 88.9321C56.2282 88.9321 56.8243 88.9321 57.3399 88.6065C57.8555 88.2794 58.168 87.6298 58.168 86.643C58.168 83.9065 55.868 81.9244 53.2946 81.9244ZM72.1899 81.9244C70.7414 81.9244 69.6758 82.3895 68.9914 83.0887C68.3071 83.7879 68.0117 84.698 68.0117 85.5476C68.0117 86.6314 68.4532 87.4081 69.0844 87.905C69.7164 88.4034 70.5024 88.6538 71.25 88.8771C71.9977 89.1011 72.7133 89.2996 73.1938 89.5934C73.6743 89.8879 73.9321 90.205 73.9321 90.8755C73.9321 91.236 73.8227 91.5228 73.5282 91.7569C73.2328 91.9918 72.7078 92.1763 71.8539 92.1763C70.8438 92.1763 70.2789 91.929 69.8672 91.6771C69.6618 91.5507 69.4961 91.4197 69.3258 91.3027C69.1555 91.1856 68.9618 91.0593 68.6907 91.0593C68.3649 91.0593 68.1243 91.2585 67.9782 91.4647C67.8301 91.667 67.7496 91.9104 67.7477 92.16C67.7477 92.474 67.9024 92.75 68.1203 92.9895C68.3391 93.229 68.6336 93.4422 68.9961 93.6283C69.7203 94.0003 70.718 94.26 71.9024 94.26C73.1891 94.26 74.2469 93.9484 74.9961 93.3438C75.7446 92.7391 76.1524 91.8407 76.1524 90.805C76.1524 89.6345 75.7235 88.7934 75.0922 88.2368C74.4602 87.681 73.6625 87.3941 72.9039 87.1631C72.1453 86.9329 71.4149 86.7531 70.9266 86.5003C70.4375 86.2476 70.2078 86.0143 70.2078 85.4771C70.2078 85.1864 70.325 84.8205 70.6227 84.5314C70.9203 84.2438 71.4063 84.0096 72.2141 84.0096C72.8594 84.0096 73.3391 84.1569 73.7235 84.312C73.9157 84.3903 74.0828 84.4717 74.2407 84.5399C74.3993 84.6073 74.5453 84.674 74.7547 84.674C75.1336 84.674 75.3938 84.4259 75.5485 84.1957C75.7032 83.9655 75.7922 83.7383 75.7922 83.4779C75.7922 83.1523 75.5883 82.9213 75.3625 82.7492C75.1368 82.5771 74.8524 82.4376 74.5243 82.3182C73.868 82.0794 73.0305 81.9244 72.1899 81.9244ZM37.9266 82.0686C37.293 82.0686 36.7453 82.4631 36.7453 83.05L36.7453 89.4011C36.7453 91.9779 38.9532 94.26 41.6907 94.26C44.3828 94.26 46.636 92.0042 46.636 89.4011L46.636 83.0267C46.636 82.7337 46.4735 82.4786 46.2594 82.3166C46.0453 82.1554 45.7735 82.0686 45.4782 82.0686C45.1828 82.0686 44.9094 82.1538 44.6907 82.3127C44.4719 82.4709 44.2969 82.7236 44.2969 83.0267L44.2969 89.4011C44.2969 90.7515 43.111 92.0585 41.6907 92.0585C40.2477 92.0585 39.0852 90.7283 39.0852 89.4011L39.0852 83.05C39.0852 82.7453 38.9172 82.5112 38.7102 82.3445C38.5032 82.1779 38.2297 82.0686 37.9266 82.0686ZM65.0368 82.0686C64.7399 82.0686 64.4664 82.1445 64.2477 82.3081C64.0289 82.4709 63.8805 82.7407 63.8805 83.0267L63.8805 94.729C63.8805 95.6073 63.818 96.3438 63.6235 96.7903C63.4297 97.236 63.2 97.4337 62.5453 97.4337C61.9664 97.4337 61.4828 97.9352 61.4828 98.536C61.4828 98.7848 61.5641 99.0593 61.7696 99.2724C61.975 99.4856 62.2946 99.612 62.6641 99.612C63.9094 99.612 64.8625 99.0639 65.4297 98.174C65.9985 97.2833 66.2188 96.0926 66.2188 94.729L66.2188 83.0267C66.2188 82.7221 66.0438 82.4569 65.8203 82.3003C65.5896 82.1445 65.3158 82.0631 65.0368 82.0686ZM53.2703 83.9856C54.8258 83.9856 55.8766 85.2779 55.8766 86.5941C55.8766 86.7376 55.861 86.8314 55.8453 86.874C55.8313 86.9166 55.8328 86.9112 55.811 86.9259C55.768 86.9538 55.5274 87.0151 55.068 87.0151L50.6641 87.0151L50.6641 86.4988C50.6641 85.1213 51.8242 83.9856 53.2703 83.9856ZM60.7016 91.2492C59.8516 91.2492 59.2078 91.9469 59.2078 92.7546C59.2078 93.5298 59.8422 94.2368 60.7016 94.2368C61.5157 94.2368 62.1703 93.5515 62.1703 92.7546C62.1703 91.9275 61.5047 91.2492 60.7016 91.2492Z" fill="#35495E"/>
<path d="M24.5342 0.304688L39.9474 0.309339L50.0224 16.9039L60.0623 0.311664L75.4623 0.307788L50.0998 43.9605L24.5342 0.304688Z" fill="#35495E"/>
<path d="M7.72433 0.421284L24.5212 0.308105L50.0853 43.9631L75.4493 0.310431L92.275 0.328261L50.0821 72.1763L7.72433 0.421284Z" fill="#41B883"/>
</g>
<defs>
<clipPath id="clip0_68_19">
<rect width="100" height="100" fill="white" transform="translate(-4.57764e-05 -0.000488281)"/>
</clipPath>
</defs>
</svg>
