<svg width="205" height="222" viewBox="0 0 205 222" fill="none" xmlns="http://www.w3.org/2000/svg">
<path d="M175.104 23.0574L29.8958 23.0574L42.7083 179.599L102.5 198.016L162.292 179.599L175.104 23.0574Z" fill="#E65100"/>
<path d="M102.5 36.8699L102.5 183.743L150.333 169.009L161.01 36.8699L102.5 36.8699Z" fill="#FF6D00"/>
<path d="M102.5 115.141L102.5 96.7242L139.229 96.7242L136.24 149.672L102.5 161.643L102.5 142.305L120.01 135.86L121.292 115.141L102.5 115.141ZM140.51 78.3075L141.792 59.8909L102.5 59.8909L102.5 78.3075L140.51 78.3075Z" fill="white"/>
<path d="M102.5 142.305L102.5 161.643L68.7604 149.672L67.052 124.349L84.1354 124.349L84.9895 135.86L102.5 142.305ZM81.5729 78.3075L102.5 78.3075L102.5 59.8909L63.6354 59.8909L66.625 115.141L102.5 115.141L102.5 96.7242L82.8541 96.7242L81.5729 78.3075Z" fill="#EEEEEE"/>
</svg>
