<svg width="205" height="222" viewBox="0 0 205 222" fill="none" xmlns="http://www.w3.org/2000/svg">
<path d="M175.104 23.0571L29.8958 23.0571L42.7083 179.599L102.5 198.015L162.292 179.599L175.104 23.0571Z" fill="#E65100"/>
<path d="M102.5 36.8696L102.5 183.743L150.333 169.009L161.01 36.8696L102.5 36.8696Z" fill="#FF6D00"/>
<path d="M102.5 115.141L102.5 96.724L139.229 96.724L136.24 149.672L102.5 161.643L102.5 142.305L120.01 135.859L121.292 115.141L102.5 115.141ZM140.51 78.3073L141.792 59.8906L102.5 59.8906L102.5 78.3073L140.51 78.3073Z" fill="white"/>
<path d="M102.5 142.305L102.5 161.643L68.7603 149.672L67.052 124.349L84.1354 124.349L84.9895 135.859L102.5 142.305ZM81.5728 78.3073L102.5 78.3073L102.5 59.8906L63.6353 59.8906L66.6249 115.141L102.5 115.141L102.5 96.724L82.8541 96.724L81.5728 78.3073Z" fill="#EEEEEE"/>
</svg>
