<svg width="100" height="100" viewBox="0 0 100 100" fill="none" xmlns="http://www.w3.org/2000/svg">
<g clip-path="url(#clip0_68_19)">
<path d="M25.1493 75.9326C24.8562 75.9322 24.5696 76.0174 24.325 76.1776C24.0758 76.3411 23.8477 76.6233 23.8477 76.9846C23.8477 77.0326 23.8196 77.1396 23.9133 77.3256L23.8891 77.2667L28.8969 93.3884C28.9868 93.6908 29.2016 93.9218 29.4438 94.0551C29.686 94.1884 29.95 94.2373 30.2078 94.2373C30.7547 94.2373 31.3563 93.9784 31.5399 93.3939L31.5399 93.3923L36.543 77.2101L36.543 77.1512C36.543 77.2334 36.5672 77.1861 36.5672 77.0094C36.5672 76.6411 36.3305 76.3706 36.0774 76.2008C35.8242 76.028 35.5245 75.9346 35.2172 75.9326C34.8344 75.9326 34.3953 76.1629 34.2485 76.6016L34.2453 76.6063L30.2063 89.9815L26.1516 76.6303C26.0914 76.3915 25.9297 76.1923 25.7414 76.0807C25.5532 75.969 25.3477 75.9326 25.1493 75.9326ZM65.036 76.7636C64.2391 76.7636 63.5672 77.3698 63.5672 78.128C63.5672 78.8861 64.2282 79.5132 65.036 79.5132C65.8282 79.5132 66.4578 78.8745 66.4578 78.128C66.4578 77.3815 65.8172 76.7636 65.036 76.7636ZM53.2946 81.9249C50.5696 81.9249 48.325 84.0892 48.325 86.69L48.325 89.3551C48.325 90.8117 48.9094 92.0605 49.9032 92.9218C50.8953 93.7838 52.2813 94.2605 53.8696 94.2605C55.043 94.2605 56 93.9993 56.6836 93.6458C57.0258 93.4683 57.3008 93.2698 57.5032 93.0535C57.7063 92.8365 57.8547 92.6001 57.8547 92.3039C57.8547 92.0326 57.75 91.797 57.5789 91.5853C57.4086 91.3737 57.1399 91.1791 56.793 91.1791C56.543 91.1791 56.3508 91.2838 56.1844 91.3853C56.018 91.4861 55.8618 91.5985 55.6735 91.7063C55.2969 91.921 54.7985 92.1303 53.9172 92.1303C52.936 92.1303 52.1188 91.8528 51.5547 91.3861C50.9922 90.921 50.6641 90.2737 50.6641 89.4256L50.6641 88.9326L55.6914 88.9326C56.2282 88.9326 56.8243 88.9326 57.3399 88.607C57.8555 88.2799 58.168 87.6303 58.168 86.6435C58.168 83.907 55.868 81.9249 53.2946 81.9249ZM72.1899 81.9249C70.7414 81.9249 69.6758 82.39 68.9914 83.0892C68.3071 83.7884 68.0117 84.6985 68.0117 85.5481C68.0117 86.6318 68.4532 87.4086 69.0844 87.9055C69.7164 88.4039 70.5024 88.6543 71.25 88.8776C71.9977 89.1016 72.7133 89.3001 73.1938 89.5939C73.6743 89.8884 73.9321 90.2055 73.9321 90.876C73.9321 91.2365 73.8227 91.5233 73.5282 91.7574C73.2328 91.9923 72.7078 92.1768 71.8539 92.1768C70.8438 92.1768 70.2789 91.9295 69.8672 91.6776C69.6618 91.5512 69.4961 91.4202 69.3258 91.3032C69.1555 91.1861 68.9618 91.0598 68.6907 91.0598C68.3649 91.0598 68.1243 91.259 67.9782 91.4652C67.8301 91.6675 67.7496 91.9109 67.7477 92.1605C67.7477 92.4745 67.9024 92.7504 68.1203 92.99C68.3391 93.2295 68.6336 93.4427 68.9961 93.6287C69.7203 94.0008 70.718 94.2605 71.9024 94.2605C73.1891 94.2605 74.2469 93.9489 74.9961 93.3442C75.7446 92.7396 76.1524 91.8411 76.1524 90.8055C76.1524 89.6349 75.7235 88.7939 75.0922 88.2373C74.4602 87.6815 73.6625 87.3946 72.9039 87.1636C72.1453 86.9334 71.4149 86.7535 70.9266 86.5008C70.4375 86.2481 70.2078 86.0148 70.2078 85.4776C70.2078 85.1869 70.325 84.821 70.6227 84.5318C70.9203 84.2442 71.4063 84.0101 72.2141 84.0101C72.8594 84.0101 73.3391 84.1574 73.7235 84.3125C73.9157 84.3908 74.0828 84.4722 74.2407 84.5404C74.3993 84.6078 74.5453 84.6745 74.7547 84.6745C75.1336 84.6745 75.3938 84.4264 75.5485 84.1962C75.7032 83.9659 75.7922 83.7388 75.7922 83.4784C75.7922 83.1528 75.5883 82.9218 75.3625 82.7497C75.1368 82.5776 74.8524 82.438 74.5243 82.3187C73.868 82.0799 73.0305 81.9249 72.1899 81.9249ZM37.9266 82.0691C37.293 82.0691 36.7453 82.4636 36.7453 83.0504L36.7453 89.4016C36.7453 91.9784 38.9532 94.2605 41.6907 94.2605C44.3828 94.2605 46.636 92.0047 46.636 89.4016L46.636 83.0272C46.636 82.7342 46.4735 82.4791 46.2594 82.3171C46.0453 82.1559 45.7735 82.0691 45.4782 82.0691C45.1828 82.0691 44.9094 82.1543 44.6907 82.3132C44.4719 82.4714 44.2969 82.7241 44.2969 83.0272L44.2969 89.4016C44.2969 90.752 43.111 92.059 41.6907 92.059C40.2477 92.059 39.0852 90.7287 39.0852 89.4016L39.0852 83.0504C39.0852 82.7458 38.9172 82.5117 38.7102 82.345C38.5032 82.1784 38.2297 82.0691 37.9266 82.0691ZM65.0368 82.0691C64.7399 82.0691 64.4664 82.145 64.2477 82.3086C64.0289 82.4714 63.8805 82.7411 63.8805 83.0272L63.8805 94.7295C63.8805 95.6078 63.818 96.3442 63.6235 96.7908C63.4297 97.2365 63.2 97.4342 62.5453 97.4342C61.9664 97.4342 61.4828 97.9357 61.4828 98.5365C61.4828 98.7853 61.5641 99.0597 61.7696 99.2729C61.975 99.4861 62.2946 99.6125 62.6641 99.6125C63.9094 99.6125 64.8625 99.0644 65.4297 98.1745C65.9985 97.2838 66.2188 96.0931 66.2188 94.7295L66.2188 83.0272C66.2188 82.7225 66.0438 82.4574 65.8203 82.3008C65.5896 82.145 65.3158 82.0636 65.0368 82.0691ZM53.2703 83.9861C54.8258 83.9861 55.8766 85.2784 55.8766 86.5946C55.8766 86.738 55.861 86.8318 55.8453 86.8745C55.8313 86.9171 55.8328 86.9117 55.811 86.9264C55.768 86.9543 55.5274 87.0156 55.068 87.0156L50.6641 87.0156L50.6641 86.4993C50.6641 85.1218 51.8242 83.9861 53.2703 83.9861ZM60.7016 91.2497C59.8516 91.2497 59.2078 91.9473 59.2078 92.7551C59.2078 93.5303 59.8422 94.2373 60.7016 94.2373C61.5157 94.2373 62.1703 93.552 62.1703 92.7551C62.1703 91.928 61.5047 91.2497 60.7016 91.2497Z" fill="#35495E"/>
<path d="M24.5342 0.30542L39.9474 0.310071L50.0224 16.9047L60.0623 0.312397L75.4623 0.308521L50.0998 43.9612L24.5342 0.30542Z" fill="#35495E"/>
<path d="M7.72433 0.421772L24.5212 0.308594L50.0853 43.9636L75.4493 0.310919L92.275 0.328749L50.0821 72.1768L7.72433 0.421772Z" fill="#41B883"/>
</g>
<defs>
<clipPath id="clip0_68_19">
<rect width="100" height="100" fill="white"/>
</clipPath>
</defs>
</svg>
