<svg width="100" height="100" viewBox="0 0 100 100" fill="none" xmlns="http://www.w3.org/2000/svg">
<path d="M12.4999 87.5L12.4999 12.5L87.4999 12.5L87.4999 87.5L12.4999 87.5Z" fill="#FFD600"/>
<path d="M61.5374 68.6395C62.9791 70.9812 64.5457 73.2249 67.8645 73.2249C70.652 73.2249 72.1145 71.8395 72.1145 69.9228C72.1145 67.6291 70.602 66.8145 67.5353 65.4791L65.8541 64.7624C61.002 62.7041 57.7749 60.1249 57.7749 54.677C57.7749 49.6562 61.6187 45.8353 67.6249 45.8353C71.902 45.8353 74.9749 47.3166 77.1916 51.1958L71.9541 54.5437C70.802 52.4853 69.5562 51.6749 67.6249 51.6749C65.6541 51.6749 64.4062 52.9187 64.4062 54.5437C64.4062 56.552 65.6562 57.3645 68.5416 58.6083L70.2228 59.3249C75.9416 61.7603 79.1666 64.2478 79.1666 69.8395C79.1666 75.8645 74.4082 79.1666 68.0207 79.1666C61.7728 79.1666 58.2249 76.0312 56.2499 72.1499L61.5374 68.6395ZM37.3999 68.8103C38.4541 70.6978 40.0562 72.1499 42.3603 72.1499C44.5645 72.1499 45.8332 71.2791 45.8332 67.8937L45.8332 45.8333L52.777 45.8333L52.777 68.9603C52.777 75.9749 48.7082 79.1666 42.7666 79.1666C37.3978 79.1666 33.5228 75.5291 31.9437 72.1499L37.3999 68.8103Z" fill="#000001"/>
</svg>
