<svg width="100" height="100" viewBox="0 0 100 100" fill="none" xmlns="http://www.w3.org/2000/svg">
<path d="M85.4166 10.4167L14.5833 10.4167L20.8333 81.2501L49.9999 89.5834L79.1666 81.2501L85.4166 10.4167Z" fill="#0277BD"/>
<path d="M49.9999 16.6667L49.9999 83.1251L73.3333 76.4584L78.5416 16.6667L49.9999 16.6667Z" fill="#039BE5"/>
<path d="M68.9583 27.0833L49.9999 27.0833L49.9999 35.4166L60.2083 35.4166L59.5833 43.7499L49.9999 43.7499L49.9999 52.0833L59.1666 52.0833L58.5416 61.4583L49.9999 64.3749L49.9999 73.1249L66.4583 67.7083L67.9166 43.7499L68.9583 27.0833Z" fill="white"/>
<path d="M49.9999 27.0833L49.9999 35.4166L31.4583 35.4166L30.8333 27.0833L49.9999 27.0833ZM40.4166 43.7499L40.8333 52.0833L49.9999 52.0833L49.9999 43.7499L40.4166 43.7499ZM41.2499 56.2499L32.9166 56.2499L33.5416 67.7083L49.9999 73.1249L49.9999 64.3749L41.4583 61.4583L41.2499 56.2499Z" fill="#EEEEEE"/>
</svg>
