<svg width="100" height="100" viewBox="0 0 100 100" fill="none" xmlns="http://www.w3.org/2000/svg">
<path d="M21.2773 10.8477C15.6703 10.8477 11.5226 15.757 11.7078 21.0813C11.8859 26.1953 11.6546 32.8203 9.98666 38.2219C8.31478 43.6406 5.48666 47.0648 0.867126 47.5055L0.867126 52.4953C5.48666 52.9352 8.31478 56.3602 9.98666 61.7789C11.6546 67.1805 11.8851 73.8055 11.7078 78.9195C11.5218 84.2438 15.6703 89.1523 21.2773 89.1523L78.7304 89.1523C84.3374 89.1523 88.4851 84.243 88.2999 78.9195C88.1218 73.8055 88.3531 67.1805 90.0202 61.7789C91.6921 56.3609 94.5132 52.9359 99.1328 52.4953L99.1328 47.5055C94.5132 47.0656 91.6929 43.6406 90.0202 38.2219C88.3531 32.8203 88.1218 26.1953 88.2999 21.0813C88.4851 15.757 84.3374 10.8477 78.7296 10.8477L21.2773 10.8477ZM66.6788 59.0398C66.6788 66.3711 61.2085 70.8156 52.1312 70.8156L35.3953 70.8156C35.2935 70.8156 35.1959 70.7752 35.124 70.7033C35.0521 70.6313 35.0117 70.5338 35.0117 70.432L35.0117 29.5523C35.0116 29.5019 35.0214 29.4519 35.0406 29.4053C35.0599 29.3587 35.0881 29.3163 35.1237 29.2806C35.1594 29.2449 35.2017 29.2166 35.2483 29.1972C35.2949 29.1779 35.3448 29.168 35.3953 29.168L52.0429 29.168C59.6124 29.168 64.5796 33.2664 64.5796 39.5586C64.5796 43.975 61.2382 47.9281 56.9804 48.6211L56.9804 48.8523C62.7757 49.4875 66.6788 53.4992 66.6788 59.0398ZM50.446 34.45L41.6351 34.45L41.6351 46.8891L49.057 46.8891C54.7929 46.8891 57.9562 44.5805 57.9562 40.4531C57.9562 36.5859 55.2367 34.45 50.446 34.45V34.45ZM41.6351 51.825L41.6351 65.5344L50.7718 65.5344C56.7445 65.5344 59.9085 63.1391 59.9085 58.6359C59.9085 54.1336 56.6562 51.825 50.3874 51.825L41.6351 51.825Z" fill="#7952B3"/>
</svg>
