<svg width="100" height="100" viewBox="0 0 100 100" fill="none" xmlns="http://www.w3.org/2000/svg">
<path d="M21.2773 10.8474C15.6703 10.8474 11.5226 15.7568 11.7078 21.081C11.8859 26.1951 11.6546 32.8201 9.98666 38.2216C8.31478 43.6404 5.48666 47.0646 0.867126 47.5052L0.867126 52.4951C5.48666 52.9349 8.31478 56.3599 9.98666 61.7787C11.6546 67.1802 11.8851 73.8052 11.7078 78.9193C11.5218 84.2435 15.6703 89.1521 21.2773 89.1521L78.7304 89.1521C84.3374 89.1521 88.4851 84.2427 88.2999 78.9193C88.1218 73.8052 88.3531 67.1802 90.0202 61.7787C91.6921 56.3607 94.5132 52.9357 99.1328 52.4951L99.1328 47.5052C94.5132 47.0654 91.6929 43.6404 90.0202 38.2216C88.3531 32.8201 88.1218 26.1951 88.2999 21.081C88.4851 15.7568 84.3374 10.8474 78.7296 10.8474L21.2773 10.8474ZM66.6788 59.0396C66.6788 66.3709 61.2085 70.8154 52.1312 70.8154L35.3953 70.8154C35.2935 70.8154 35.1959 70.775 35.124 70.703C35.0521 70.6311 35.0117 70.5335 35.0117 70.4318L35.0117 29.5521C35.0116 29.5017 35.0214 29.4517 35.0406 29.4051C35.0599 29.3584 35.0881 29.3161 35.1237 29.2804C35.1594 29.2447 35.2017 29.2163 35.2483 29.197C35.2949 29.1777 35.3448 29.1677 35.3953 29.1677L52.0429 29.1677C59.6124 29.1677 64.5796 33.2662 64.5796 39.5584C64.5796 43.9748 61.2382 47.9279 56.9804 48.6209L56.9804 48.8521C62.7757 49.4873 66.6788 53.499 66.6788 59.0396ZM50.446 34.4498L41.6351 34.4498L41.6351 46.8888L49.057 46.8888C54.7929 46.8888 57.9562 44.5802 57.9562 40.4529C57.9562 36.5857 55.2367 34.4498 50.446 34.4498V34.4498ZM41.6351 51.8248L41.6351 65.5341L50.7718 65.5341C56.7445 65.5341 59.9085 63.1388 59.9085 58.6357C59.9085 54.1334 56.6562 51.8248 50.3874 51.8248L41.6351 51.8248Z" fill="#7952B3"/>
</svg>
